Coordinates
version=1
nRows=31
nColumns=21
inDegrees=no
endheader
time	ra_wr_s_p	ra_wr_e_f	ra_cmc1_ad_ab	ra_cmc1_f_e	ra_mcp1_f_e	ra_ip1_f_e	ra_mcp2_e_f	ra_pip2_e_f	ra_dip2_e_f	ra_mcp3_e_f	ra_pip3_e_f	ra_dip3_e_f	ra_mcp4_e_f	ra_pip4_e_f	ra_dip4_e_f	ra_mcp5_e_f	ra_pip5_e_f	ra_dip5_e_f	ra_el_e_f	ra_wr_ad_ab
0.125000	0.000000	0.005310	0.436350	0.436350	-0.392700	-0.785400	0.785400	1.047200	0.785400	0.785400	1.047200	0.785400	0.785400	1.047200	0.785400	0.785400	1.047200	0.785400	0.785398	0.112246
0.126000	0.000000	0.003592	0.436350	0.436350	-0.392700	-0.785400	0.785400	1.047200	0.785400	0.785400	1.047200	0.785400	0.785400	1.047200	0.785400	0.785400	1.047200	0.785400	0.785398	0.112817
0.127000	0.000000	0.001849	0.436350	0.436350	-0.392700	-0.785400	0.785400	1.047200	0.785400	0.785400	1.047200	0.785400	0.785400	1.047200	0.785400	0.785400	1.047200	0.785400	0.785398	0.113397
0.128000	0.000000	0.000080	0.436350	0.436350	-0.392700	-0.785400	0.785400	1.047200	0.785400	0.785400	1.047200	0.785400	0.785400	1.047200	0.785400	0.785400	1.047200	0.785400	0.785398	0.113985
0.129000	0.000000	-0.001715	0.436350	0.436350	-0.392700	-0.785400	0.785400	1.047200	0.785400	0.785400	1.047200	0.785400	0.785400	1.047200	0.785400	0.785400	1.047200	0.785400	0.785398	0.114581
0.130000	0.000000	-0.003536	0.436350	0.436350	-0.392700	-0.785400	0.785400	1.047200	0.785400	0.785400	1.047200	0.785400	0.785400	1.047200	0.785400	0.785400	1.047200	0.785400	0.785398	0.115186
0.131000	0.000000	-0.005383	0.436350	0.436350	-0.392700	-0.785400	0.785400	1.047200	0.785400	0.785400	1.047200	0.785400	0.785400	1.047200	0.785400	0.785400	1.047200	0.785400	0.785398	0.115800
0.132000	0.000000	-0.007256	0.436350	0.436350	-0.392700	-0.785400	0.785400	1.047200	0.785400	0.785400	1.047200	0.785400	0.785400	1.047200	0.785400	0.785400	1.047200	0.785400	0.785398	0.116422
0.133000	0.000000	-0.009156	0.436350	0.436350	-0.392700	-0.785400	0.785400	1.047200	0.785400	0.785400	1.047200	0.785400	0.785400	1.047200	0.785400	0.785400	1.047200	0.785400	0.785398	0.117054
0.134000	0.000000	-0.011083	0.436350	0.436350	-0.392700	-0.785400	0.785400	1.047200	0.785400	0.785400	1.047200	0.785400	0.785400	1.047200	0.785400	0.785400	1.047200	0.785400	0.785398	0.117694
0.135000	0.000000	-0.013037	0.436350	0.436350	-0.392700	-0.785400	0.785400	1.047200	0.785400	0.785400	1.047200	0.785400	0.785400	1.047200	0.785400	0.785400	1.047200	0.785400	0.785398	0.118344
0.136000	0.000000	-0.015019	0.436350	0.436350	-0.392700	-0.785400	0.785400	1.047200	0.785400	0.785400	1.047200	0.785400	0.785400	1.047200	0.785400	0.785400	1.047200	0.785400	0.785398	0.119002
0.137000	0.000000	-0.017028	0.436350	0.436350	-0.392700	-0.785400	0.785400	1.047200	0.785400	0.785400	1.047200	0.785400	0.785400	1.047200	0.785400	0.785400	1.047200	0.785400	0.785398	0.119670
0.138000	0.000000	-0.019064	0.436350	0.436350	-0.392700	-0.785400	0.785400	1.047200	0.785400	0.785400	1.047200	0.785400	0.785400	1.047200	0.785400	0.785400	1.047200	0.785400	0.785398	0.120346
0.139000	0.000000	-0.021129	0.436350	0.436350	-0.392700	-0.785400	0.785400	1.047200	0.785400	0.785400	1.047200	0.785400	0.785400	1.047200	0.785400	0.785400	1.047200	0.785400	0.785398	0.121033
0.140000	0.000000	-0.023222	0.436350	0.436350	-0.392700	-0.785400	0.785400	1.047200	0.785400	0.785400	1.047200	0.785400	0.785400	1.047200	0.785400	0.785400	1.047200	0.785400	0.785398	0.121728
0.141000	0.000000	-0.025343	0.436350	0.436350	-0.392700	-0.785400	0.785400	1.047200	0.785400	0.785400	1.047200	0.785400	0.785400	1.047200	0.785400	0.785400	1.047200	0.785400	0.785398	0.122433
0.142000	0.000000	-0.027494	0.436350	0.436350	-0.392700	-0.785400	0.785400	1.047200	0.785400	0.785400	1.047200	0.785400	0.785400	1.047200	0.785400	0.785400	1.047200	0.785400	0.785398	0.123148
0.143000	0.000000	-0.029673	0.436350	0.436350	-0.392700	-0.785400	0.785400	1.047200	0.785400	0.785400	1.047200	0.785400	0.785400	1.047200	0.785400	0.785400	1.047200	0.785400	0.785398	0.123872
0.144000	0.000000	-0.031881	0.436350	0.436350	-0.392700	-0.785400	0.785400	1.047200	0.785400	0.785400	1.047200	0.785400	0.785400	1.047200	0.785400	0.785400	1.047200	0.785400	0.785398	0.124606
0.145000	0.000000	-0.034119	0.436350	0.436350	-0.392700	-0.785400	0.785400	1.047200	0.785400	0.785400	1.047200	0.785400	0.785400	1.047200	0.785400	0.785400	1.047200	0.785400	0.785398	0.125349
0.146000	0.000000	-0.036386	0.436350	0.436350	-0.392700	-0.785400	0.785400	1.047200	0.785400	0.785400	1.047200	0.785400	0.785400	1.047200	0.785400	0.785400	1.047200	0.785400	0.785398	0.126103
0.147000	0.000000	-0.038683	0.436350	0.436350	-0.392700	-0.785400	0.785400	1.047200	0.785400	0.785400	1.047200	0.785400	0.785400	1.047200	0.785400	0.785400	1.047200	0.785400	0.785398	0.126866
0.148000	0.000000	-0.041010	0.436350	0.436350	-0.392700	-0.785400	0.785400	1.047200	0.785400	0.785400	1.047200	0.785400	0.785400	1.047200	0.785400	0.785400	1.047200	0.785400	0.785398	0.127639
0.149000	0.000000	-0.043367	0.436350	0.436350	-0.392700	-0.785400	0.785400	1.047200	0.785400	0.785400	1.047200	0.785400	0.785400	1.047200	0.785400	0.785400	1.047200	0.785400	0.785398	0.128423
0.150000	0.000000	-0.045754	0.436350	0.436350	-0.392700	-0.785400	0.785400	1.047200	0.785400	0.785400	1.047200	0.785400	0.785400	1.047200	0.785400	0.785400	1.047200	0.785400	0.785398	0.129216
0.151000	0.000000	-0.048172	0.436350	0.436350	-0.392700	-0.785400	0.785400	1.047200	0.785400	0.785400	1.047200	0.785400	0.785400	1.047200	0.785400	0.785400	1.047200	0.785400	0.785398	0.130020
0.152000	0.000000	-0.050621	0.436350	0.436350	-0.392700	-0.785400	0.785400	1.047200	0.785400	0.785400	1.047200	0.785400	0.785400	1.047200	0.785400	0.785400	1.047200	0.785400	0.785398	0.130833
0.153000	0.000000	-0.053101	0.436350	0.436350	-0.392700	-0.785400	0.785400	1.047200	0.785400	0.785400	1.047200	0.785400	0.785400	1.047200	0.785400	0.785400	1.047200	0.785400	0.785398	0.131657
0.154000	0.000000	-0.055612	0.436350	0.436350	-0.392700	-0.785400	0.785400	1.047200	0.785400	0.785400	1.047200	0.785400	0.785400	1.047200	0.785400	0.785400	1.047200	0.785400	0.785398	0.132492
0.155000	0.000000	-0.058155	0.436350	0.436350	-0.392700	-0.785400	0.785400	1.047200	0.785400	0.785400	1.047200	0.785400	0.785400	1.047200	0.785400	0.785400	1.047200	0.785400	0.785398	0.133337
